<mxfile host="app.diagrams.net" modified="2022-11-01T03:45:16.055Z" agent="5.0 (Macintosh; Intel Mac OS X 10_15_7) AppleWebKit/537.36 (KHTML, like Gecko) Chrome/105.0.0.0 Safari/537.36" etag="mc7OBXk38OMx2WUd-vwp" version="20.4.2" type="github">
  <diagram id="kgpKYQtTHZ0yAKxKKP6v" name="Page-1">
    <mxGraphModel dx="946" dy="614" grid="1" gridSize="10" guides="1" tooltips="1" connect="1" arrows="1" fold="1" page="1" pageScale="1" pageWidth="1169" pageHeight="1654" math="0" shadow="0">
      <root>
        <mxCell id="0" />
        <mxCell id="1" parent="0" />
        <mxCell id="3nuBFxr9cyL0pnOWT2aG-1" value="Master" style="shape=umlLifeline;perimeter=lifelinePerimeter;container=1;collapsible=0;recursiveResize=0;rounded=0;shadow=0;strokeWidth=1;" parent="1" vertex="1">
          <mxGeometry x="215" y="870" width="100" height="540" as="geometry" />
        </mxCell>
        <mxCell id="3nuBFxr9cyL0pnOWT2aG-2" value="" style="points=[];perimeter=orthogonalPerimeter;rounded=0;shadow=0;strokeWidth=1;" parent="3nuBFxr9cyL0pnOWT2aG-1" vertex="1">
          <mxGeometry x="45" y="70" width="10" height="130" as="geometry" />
        </mxCell>
        <mxCell id="AwmB5CsNsaKVvRhN-XGT-18" value="submitStateUpdateTask" style="verticalAlign=bottom;endArrow=block;shadow=0;strokeWidth=1;rounded=0;exitX=0.9;exitY=0.179;exitDx=0;exitDy=0;exitPerimeter=0;entryX=1.3;entryY=0.769;entryDx=0;entryDy=0;entryPerimeter=0;" edge="1" parent="3nuBFxr9cyL0pnOWT2aG-1" source="3nuBFxr9cyL0pnOWT2aG-2" target="3nuBFxr9cyL0pnOWT2aG-2">
          <mxGeometry x="0.1556" y="40" relative="1" as="geometry">
            <mxPoint x="55" y="90" as="sourcePoint" />
            <mxPoint x="65" y="170" as="targetPoint" />
            <Array as="points">
              <mxPoint x="85" y="93" />
              <mxPoint x="85" y="170" />
            </Array>
            <mxPoint as="offset" />
          </mxGeometry>
        </mxCell>
        <mxCell id="AwmB5CsNsaKVvRhN-XGT-12" value="" style="points=[];perimeter=orthogonalPerimeter;rounded=0;shadow=0;strokeWidth=1;" vertex="1" parent="3nuBFxr9cyL0pnOWT2aG-1">
          <mxGeometry x="45" y="220" width="10" height="100" as="geometry" />
        </mxCell>
        <mxCell id="AwmB5CsNsaKVvRhN-XGT-22" value="buildClusterState" style="verticalAlign=bottom;endArrow=block;shadow=0;strokeWidth=1;rounded=0;exitX=0.9;exitY=0.179;exitDx=0;exitDy=0;exitPerimeter=0;entryX=1.3;entryY=0.769;entryDx=0;entryDy=0;entryPerimeter=0;" edge="1" parent="3nuBFxr9cyL0pnOWT2aG-1">
          <mxGeometry x="0.1778" y="29" relative="1" as="geometry">
            <mxPoint x="55" y="231.76999999999998" as="sourcePoint" />
            <mxPoint x="59" y="308.47" as="targetPoint" />
            <Array as="points">
              <mxPoint x="86" y="231.5" />
              <mxPoint x="86" y="308.5" />
            </Array>
            <mxPoint as="offset" />
          </mxGeometry>
        </mxCell>
        <mxCell id="AwmB5CsNsaKVvRhN-XGT-25" value="" style="points=[];perimeter=orthogonalPerimeter;rounded=0;shadow=0;strokeWidth=1;" vertex="1" parent="3nuBFxr9cyL0pnOWT2aG-1">
          <mxGeometry x="45" y="350" width="10" height="80" as="geometry" />
        </mxCell>
        <mxCell id="AwmB5CsNsaKVvRhN-XGT-26" value="diffClusterState" style="verticalAlign=bottom;endArrow=block;shadow=0;strokeWidth=1;rounded=0;" edge="1" parent="3nuBFxr9cyL0pnOWT2aG-1">
          <mxGeometry x="0.1667" y="20" relative="1" as="geometry">
            <mxPoint x="55" y="360" as="sourcePoint" />
            <mxPoint x="55" y="420" as="targetPoint" />
            <Array as="points">
              <mxPoint x="85" y="360" />
              <mxPoint x="85" y="420" />
            </Array>
            <mxPoint as="offset" />
          </mxGeometry>
        </mxCell>
        <mxCell id="AwmB5CsNsaKVvRhN-XGT-30" value="" style="points=[];perimeter=orthogonalPerimeter;rounded=0;shadow=0;strokeWidth=1;" vertex="1" parent="3nuBFxr9cyL0pnOWT2aG-1">
          <mxGeometry x="45" y="460" width="10" height="60" as="geometry" />
        </mxCell>
        <mxCell id="AwmB5CsNsaKVvRhN-XGT-32" value="" style="endArrow=classic;html=1;rounded=0;entryX=-0.4;entryY=0.747;entryDx=0;entryDy=0;entryPerimeter=0;" edge="1" parent="3nuBFxr9cyL0pnOWT2aG-1" target="3nuBFxr9cyL0pnOWT2aG-6">
          <mxGeometry relative="1" as="geometry">
            <mxPoint x="55" y="480" as="sourcePoint" />
            <mxPoint x="215" y="480" as="targetPoint" />
          </mxGeometry>
        </mxCell>
        <mxCell id="AwmB5CsNsaKVvRhN-XGT-33" value="publish" style="edgeLabel;resizable=0;html=1;align=center;verticalAlign=middle;" connectable="0" vertex="1" parent="AwmB5CsNsaKVvRhN-XGT-32">
          <mxGeometry relative="1" as="geometry">
            <mxPoint x="-22" y="-10" as="offset" />
          </mxGeometry>
        </mxCell>
        <mxCell id="3nuBFxr9cyL0pnOWT2aG-5" value="Data " style="shape=umlLifeline;perimeter=lifelinePerimeter;container=1;collapsible=0;recursiveResize=0;rounded=0;shadow=0;strokeWidth=1;" parent="1" vertex="1">
          <mxGeometry x="585" y="870" width="100" height="540" as="geometry" />
        </mxCell>
        <mxCell id="3nuBFxr9cyL0pnOWT2aG-6" value="" style="points=[];perimeter=orthogonalPerimeter;rounded=0;shadow=0;strokeWidth=1;" parent="3nuBFxr9cyL0pnOWT2aG-5" vertex="1">
          <mxGeometry x="45" y="360" width="10" height="160" as="geometry" />
        </mxCell>
        <mxCell id="AwmB5CsNsaKVvRhN-XGT-1" value="" style="rounded=0;whiteSpace=wrap;html=1;" vertex="1" parent="1">
          <mxGeometry x="150" y="70" width="360" height="220" as="geometry" />
        </mxCell>
        <mxCell id="AwmB5CsNsaKVvRhN-XGT-2" value="RoutingTable" style="text;html=1;strokeColor=none;fillColor=none;align=center;verticalAlign=middle;whiteSpace=wrap;rounded=0;" vertex="1" parent="1">
          <mxGeometry x="160" y="75" width="80" height="30" as="geometry" />
        </mxCell>
        <mxCell id="AwmB5CsNsaKVvRhN-XGT-3" value="" style="rounded=0;whiteSpace=wrap;html=1;" vertex="1" parent="1">
          <mxGeometry x="215" y="105" width="280" height="150" as="geometry" />
        </mxCell>
        <mxCell id="AwmB5CsNsaKVvRhN-XGT-4" value="IndexRoutingTable" style="text;html=1;strokeColor=none;fillColor=none;align=center;verticalAlign=middle;whiteSpace=wrap;rounded=0;" vertex="1" parent="1">
          <mxGeometry x="240" y="105" width="80" height="30" as="geometry" />
        </mxCell>
        <mxCell id="AwmB5CsNsaKVvRhN-XGT-5" value="" style="rounded=0;whiteSpace=wrap;html=1;" vertex="1" parent="1">
          <mxGeometry x="275" y="135" width="210" height="110" as="geometry" />
        </mxCell>
        <mxCell id="AwmB5CsNsaKVvRhN-XGT-6" value="IndexShardRoutingTable" style="text;html=1;strokeColor=none;fillColor=none;align=center;verticalAlign=middle;whiteSpace=wrap;rounded=0;" vertex="1" parent="1">
          <mxGeometry x="325" y="135" width="60" height="30" as="geometry" />
        </mxCell>
        <mxCell id="AwmB5CsNsaKVvRhN-XGT-13" value="ClusterStateUpdateRequest" style="verticalAlign=bottom;endArrow=block;entryX=0;entryY=0;shadow=0;strokeWidth=1;" edge="1" parent="1">
          <mxGeometry relative="1" as="geometry">
            <mxPoint x="60" y="960" as="sourcePoint" />
            <mxPoint x="260" y="960" as="targetPoint" />
          </mxGeometry>
        </mxCell>
        <mxCell id="AwmB5CsNsaKVvRhN-XGT-17" value="1、构造并发送集群状态变更请求" style="text;html=1;strokeColor=none;fillColor=none;align=center;verticalAlign=middle;whiteSpace=wrap;rounded=0;" vertex="1" parent="1">
          <mxGeometry x="120" y="970" width="90" height="30" as="geometry" />
        </mxCell>
        <mxCell id="AwmB5CsNsaKVvRhN-XGT-20" value="2、提交变更任务" style="text;html=1;strokeColor=none;fillColor=none;align=center;verticalAlign=middle;whiteSpace=wrap;rounded=0;" vertex="1" parent="1">
          <mxGeometry x="320" y="1015" width="100" height="25" as="geometry" />
        </mxCell>
        <mxCell id="AwmB5CsNsaKVvRhN-XGT-24" value="3、构造集群状态，根据当前集群状态与提交任务构造新的集群状态，如：RoutingTable/metedata等" style="text;html=1;strokeColor=none;fillColor=none;align=center;verticalAlign=middle;whiteSpace=wrap;rounded=0;" vertex="1" parent="1">
          <mxGeometry x="302.5" y="1150" width="207.5" height="60" as="geometry" />
        </mxCell>
        <mxCell id="AwmB5CsNsaKVvRhN-XGT-29" value="4、全量对比集群状态，产生Diff" style="text;html=1;strokeColor=none;fillColor=none;align=center;verticalAlign=middle;whiteSpace=wrap;rounded=0;" vertex="1" parent="1">
          <mxGeometry x="320" y="1280" width="130" height="30" as="geometry" />
        </mxCell>
        <mxCell id="AwmB5CsNsaKVvRhN-XGT-35" value="创建索引、删除索引&#xa;新增节点、删除节点&#xa;集群health&#xa;集群配置变更&#xa;索引配置变更" style="shape=note;align=left" vertex="1" parent="1">
          <mxGeometry x="50.00299382716048" y="1030.0036111111112" width="120.02700617283949" height="109.82638888888889" as="geometry" />
        </mxCell>
      </root>
    </mxGraphModel>
  </diagram>
</mxfile>
